<?xml version="1.0" encoding="UTF-8" standalone="no"?>
<svg id="svg2" xmlns:rdf="http://www.w3.org/1999/02/22-rdf-syntax-ns#" xmlns="http://www.w3.org/2000/svg" viewBox="0 0 420 480" version="1.1" xmlns:cc="http://creativecommons.org/ns#" xmlns:dc="http://purl.org/dc/elements/1.1/">
 <defs id="defs4"></defs>
 <metadata id="metadata7">
  <rdf:RDF>
   <cc:Work rdf:about="">
    <dc:format>image/svg+xml</dc:format>
    <dc:type rdf:resource="http://purl.org/dc/dcmitype/StillImage"/>
    <dc:title/>
   </cc:Work>
  </rdf:RDF>
 </metadata>
 <g id="layer1" transform="translate(670,-363.79074)">
  <path id="path2953" fill="#000" d="m-534.74,796.25c-0.43085-32.762,3.5787-65.266,3.4467-98.018,0.20585-22.038,1.9884-44.038,4.3559-65.893,3.7973-18.789-4.4458-36.8-7.2232-54.83-1.0917-22.473,0.84673-45.138-1.4636-67.505-4.2792-15.531-11.872-35.779-1.5829-49.983,12.993-4.8939,15.984,13.485,17.897,22.61-0.49178,8.02,13.186,30.569,13.256,12.499-1.6666-19.971-1.9434-40.354-0.48497-60.318,6.6196-10.636,22.687-3.8239,21.644,8.1205,3.2558,12.904,1.6953,33.478,9.3444,41.655,6.6835-13.516,3.6693-30.733,7.8648-45.539,2.3059-12.08,0.52061-35.643,20.261-25.726,6.9014,3.3621,5.4795,10.35,5.4296,16.67,1.0247,10.817,0.12719,20.944,1.9776,30.23,0.13759,10.307-11.478,33.057-0.55376,37.123,5.4443-12.767,9.1758-26.169,14.164-39.376,3.2386-10.85,6.9044-34.871,22.912-27.183,10.624,9.3935,4.973,26.781,3.3234,39.644-3.6115,15.997-10.224,31.278-11.818,47.751-4.52,16.031-2.4244,32.915,1.2778,48.806,5.2391,17.739,20.599-8.2602,29.717-11.692,11.295-7.874,43.766-10.409,35.426,11.208-12.142,5.6599-20.721,14.993-31.175,23.177-8.9923,9.2358-15.605,20.438-26.251,26.527-11.923,7.1283-23.997,15.507-36.503,22.185-13.263,7.4488-3.463,33.251-5.1786,47.594,2.977,17.986,1.4912,36.914,1.4418,54.8,1.7337,14.49,7.6373,27.344,8.8327,41.494,4.4406,11.31,6.5419,23.821,10.594,35.974,0.34019,6.6924,8.463,22.995,1.2442,25.532h-112.74c0.1881-15.846,0.37619-31.693,0.56429-47.539z"/>
 </g>
</svg>