<?xml version="1.0" encoding="UTF-8" standalone="no"?>
<svg id="svg2" xmlns:rdf="http://www.w3.org/1999/02/22-rdf-syntax-ns#" xmlns="http://www.w3.org/2000/svg" viewBox="0 0 420 480" version="1.1" xmlns:cc="http://creativecommons.org/ns#" xmlns:dc="http://purl.org/dc/elements/1.1/">
 <defs id="defs4"></defs>
 <metadata id="metadata7">
  <rdf:RDF>
   <cc:Work rdf:about="">
    <dc:format>image/svg+xml</dc:format>
    <dc:type rdf:resource="http://purl.org/dc/dcmitype/StillImage"/>
    <dc:title/>
   </cc:Work>
  </rdf:RDF>
 </metadata>
 <g id="layer1" transform="translate(670,-363.79074)">
  <path id="path3143" fill="#000" d="m-460.75,843.13c-4.5307-10.249-5.1073-22.438-10.063-32.406-0.80278-15.159-5.8451-29.608-7.3347-44.931-2.3225-14.801-4.4732-29.734-7.5903-44.451-2.1892-14.771-4.8748-29.218-6.8516-44.064-1.3612-19.805,2.014-40.435-5.4104-59.184-2.8853-10.149-7.3363-18.78-14.13-27.9-4.1808-13.553-5.3682-27.851-7.3107-42.262-0.90383-12.382-11.609-21.109-16.374-31.239-4.5198-10.099-21.676-30.791-7.7932-37.898,11.949,2.3136,14.523,16.656,20.75,25.266,5.5732,6.1027,12.745,22.435,22.299,18.028,3.946-4.1897-4.5975-17.666-6.2616-25.056-1.3594-11.538-7.7584-20.658-8.1791-32.345-10.68-14.906,16.641-24.835,15.449-5.519,2.4061,11.213,11.11,20.479,12.913,31.353,5.1195,4.2064,5.1007,30.365,12.609,16.152-4.5312-13.69-3.6567-29.054-8.748-42.639-0.30719-11.138-9.3711-22.522-2.4537-32.854,16.018-6.5622,17.43,14.631,22.326,24.173,1.4829,10.676,5.5078,20.789,8.5393,31.377-6.2793,9.1678,4.8332,31.7,11.175,13.8,2.9127-15.41,6.5137-31.013,7.2694-46.846-1.9516-11.666,13.362-28.468,19.036-10.89,2.6064,12.434-2.5585,27.746-0.36663,37.985,1.2218,12.49-3.2666,26.784-3.7881,39.991-3.2158,11.651,4.5442,29.723,17.493,18.024,12.359-7.37,22.307-20.873,38.253-18.991,13.385-6.2356,27.538,18.159,7.8547,15.895-13.566,1.355-25.054,14.522-32.562,24.957-5.669,12.439-18.899,19.412-27.322,29.64-6.958,8.067-16.095,16.841-13.309,28.201,2.8295,13.884,4.7797,28.77,9.3376,42.015,2.6336,11.654,7.0327,22.643,8.112,35.083,3.2336,12.739,6.8528,25.334,9.448,38.4,3.5844,10.739,7.4628,22.486,13.456,31.461,6.294,13.152,11.115,26.753,16.034,40.339,4.7238,9.337,8.198,18.917,10.978,28.671,5.0453,8.361,0.62171,10.876-7.8623,9.3132-29.873-0.15127-59.762,0.21659-89.622-0.64603z"/>
 </g>
</svg>