<?xml version="1.0" encoding="UTF-8" standalone="no"?>
<svg id="svg2" xmlns:rdf="http://www.w3.org/1999/02/22-rdf-syntax-ns#" xmlns="http://www.w3.org/2000/svg" viewBox="0 0 420 480" version="1.1" xmlns:cc="http://creativecommons.org/ns#" xmlns:dc="http://purl.org/dc/elements/1.1/">
 <defs id="defs4"></defs>
 <metadata id="metadata7">
  <rdf:RDF>
   <cc:Work rdf:about="">
    <dc:format>image/svg+xml</dc:format>
    <dc:type rdf:resource="http://purl.org/dc/dcmitype/StillImage"/>
    <dc:title/>
   </cc:Work>
  </rdf:RDF>
 </metadata>
 <g id="layer1" transform="translate(670,-363.79074)">
  <path id="path3371" fill="#000" d="m-532,842.21c6.1333-30.769,14.016-61.635,22.155-91.317,2.8099-16.509,6.6771-32.816,7.8454-49.662,1.9041-16.372,5.0782-32.571,3.8436-49.316,2.137-15.169,1.6424-31.075-6.307-44.186-5.7568-12.358-10.73-24.924-14.264-38.261-0.73633-15.064-14.592-24.762-22.951-36.177-8.1672-9.9851-16.947-20.858-23.772-32.46-11.022-10.12,1.2474-24.358,12.609-14.482,12.99,9.7445,22.218,24.606,36.363,33.441,17.861,15.49,0.24593-14.891-1.4378-22.764-5.3862-13.02-9.563-26.254-13.523-39.295-3.6461-10.16-14.154-30.299,2.3404-33.799,13.728,0.16959,13.69,15.991,18.863,25.025,5.3469,11.887,11.362,22.63,17.865,34.653,1.3387,8.7198,17.112,31.305,14.356,9.3038-3.6446-20.457-0.95852-41.594-3.2607-62.241-2.3487-11.369,0.11561-39.035,16.72-24.67,8.3349,14.067,5.2208,31.748,10.277,47.112,3.1482,11.376,2.4042,32.032,7.6733,38.087,3.1123-14.254,6.2212-28.71,9.2477-43.196,0.66221-10.901,2.162-31.104,16.734-28.949,10.97,12.949,0.78701,33.629,3.4967,50.137-0.65639,18.365,0.75341,37.095-2.8694,55.087,0.98713,12.449,11.454,37.257,26.995,26.368,13.791-8.6404,26.609-23.776,44.923-19.391,20.999,9.1565-9.7685,23.212-16.143,32.455-9.7766,11.749-21.629,20.198-26.856,35.136-5.1616,12.715-17.287,20.59-21.653,33.787-3.0594,14.791,0.96359,28.697,0.89976,44.093,0.18848,17.011,2.7672,33.924,1.8252,51.058,0.44109,20.456-1.8723,41.382,5.1116,60.894,4.1403,18.101,4.7693,36.664,6.0298,55.109-43.723-0.26512-87.479,0.66794-131.17-0.73232l-1.564-0.37093-0.39924-0.47681z"/>
 </g>
</svg>